<svg xmlns="http://www.w3.org/2000/svg" viewBox="0 0 120 120" width="120" height="120" role="img" aria-label="Pixel Arcadia">
  <g fill="#AFC5F5"><rect x="46.88" y="18.52" width="26.25" height="11.25" rx="2.11"/><rect x="27.19" y="26.02" width="20.63" height="11.25" rx="2.11"/><rect x="72.19" y="26.02" width="20.63" height="11.25" rx="2.11"/><rect x="19.69" y="37.27" width="15" height="18.75" rx="2.11"/><rect x="85.31" y="37.27" width="15" height="18.75" rx="2.11"/><rect x="17.81" y="56.02" width="15" height="48.75" rx="2.11"/><rect x="87.19" y="56.02" width="15" height="48.75" rx="2.11"/></g>
  <g fill="#FFFFFF"><rect x="46.88" y="15.94" width="26.25" height="11.25" rx="2.11"/><rect x="27.19" y="23.44" width="20.63" height="11.25" rx="2.11"/><rect x="72.19" y="23.44" width="20.63" height="11.25" rx="2.11"/><rect x="19.69" y="34.69" width="15" height="18.75" rx="2.11"/><rect x="85.31" y="34.69" width="15" height="18.75" rx="2.11"/><rect x="17.81" y="53.44" width="15" height="48.75" rx="2.11"/><rect x="87.19" y="53.44" width="15" height="48.75" rx="2.11"/></g>
  <rect x="41.25" y="51.33" width="17.81" height="17.81" rx="3.28" fill="#D62D68"/><rect x="41.25" y="49.69" width="17.81" height="17.81" rx="3.28" fill="#FF4F8B"/><rect x="60.94" y="51.33" width="17.81" height="17.81" rx="3.28" fill="#D98500"/><rect x="60.94" y="49.69" width="17.81" height="17.81" rx="3.28" fill="#FFC53D"/><rect x="41.25" y="71.02" width="17.81" height="17.81" rx="3.28" fill="#1FA7C9"/><rect x="41.25" y="69.38" width="17.81" height="17.81" rx="3.28" fill="#4FE3FF"/><rect x="60.94" y="71.02" width="17.81" height="17.81" rx="3.28" fill="#1FAE74"/><rect x="60.94" y="69.38" width="17.81" height="17.81" rx="3.28" fill="#3FD99A"/>
</svg>
